<?xml version="1.0" encoding="UTF-8"?> <!-- Generator: Adobe Illustrator 16.0.0, SVG Export Plug-In . SVG Version: 6.00 Build 0) --> <svg xmlns="http://www.w3.org/2000/svg" xmlns:xlink="http://www.w3.org/1999/xlink" version="1.1" id="Layer_1" x="0px" y="0px" width="350px" height="76.537px" viewBox="0 0 350 76.537" xml:space="preserve"> <g> <g> <path fill-rule="evenodd" clip-rule="evenodd" fill="#272973" d="M262.529,60.271c0.022,0.019,0.043,0.048,0.068,0.052 c0.395,0.065,0.789,0.133,1.187,0.188c0.767,0.107,1.521,0.271,2.251,0.526c0.403,0.141,0.802,0.306,1.187,0.491 c0.956,0.464,1.677,1.18,2.195,2.104c0.466,0.832,0.75,1.729,0.923,2.662c0.209,1.127,0.317,2.265,0.354,3.41 c0.024,0.773,0.115,1.541,0.329,2.287c0.078,0.272,0.18,0.545,0.314,0.795c0.58,1.074,1.889,1.235,2.738,0.347 c0.241-0.252,0.409-0.552,0.532-0.874c0.092-0.239,0.151-0.49,0.232-0.735c0.026-0.079,0.064-0.158,0.114-0.226 c0.03-0.041,0.098-0.087,0.14-0.08c0.281,0.045,0.561,0.1,0.838,0.163c0.042,0.01,0.081,0.079,0.101,0.129 c0.021,0.051,0.025,0.113,0.018,0.168c-0.142,1.034-0.466,2.003-1.062,2.869c-0.5,0.729-1.17,1.245-1.99,1.571 c-0.4,0.159-0.818,0.272-1.242,0.324c-1.057,0.128-2.113,0.132-3.154-0.135c-1.37-0.352-2.334-1.165-2.828-2.508 c-0.18-0.485-0.312-0.985-0.375-1.495c-0.074-0.595-0.123-1.195-0.138-1.795c-0.017-0.686,0.019-1.372,0.027-2.059 c0.017-1.146-0.024-2.288-0.258-3.415c-0.094-0.45-0.228-0.886-0.413-1.306c-0.351-0.792-0.919-1.368-1.707-1.731 c-0.735-0.339-1.514-0.516-2.31-0.621c-0.853-0.114-1.707-0.17-2.567-0.148c-0.543,0.013-1.088-0.001-1.631,0.005 c-0.468,0.004-0.519,0.063-0.529,0.562c-0.003,0.143-0.002,0.285-0.002,0.429c0,2.861-0.002,5.722,0.002,8.583 c0.001,0.429,0.015,0.859,0.057,1.286c0.034,0.34,0.106,0.678,0.188,1.01c0.143,0.579,0.524,0.942,1.094,1.098 c0.413,0.112,0.832,0.205,1.266,0.218c0.257,0.008,0.513,0.026,0.77,0.044c0.109,0.008,0.224,0.116,0.227,0.219 c0.01,0.371,0.018,0.742,0.018,1.113c0,0.203-0.121,0.329-0.311,0.324c-0.43-0.011-0.859-0.018-1.287-0.046 c-1.885-0.124-3.772-0.144-5.661-0.132c-0.715,0.005-1.43,0.027-2.145,0.055c-0.943,0.034-1.886,0.084-2.829,0.121 c-0.142,0.006-0.285-0.008-0.425-0.031c-0.046-0.008-0.088-0.067-0.124-0.11c-0.016-0.019-0.02-0.054-0.021-0.082 c-0.002-0.399-0.005-0.799-0.002-1.198c0.001-0.107,0.113-0.221,0.216-0.229c0.199-0.016,0.398-0.038,0.598-0.037 c0.404,0.001,0.796-0.081,1.188-0.158c0.085-0.017,0.168-0.037,0.25-0.06c0.602-0.169,0.997-0.544,1.14-1.16 c0.064-0.278,0.135-0.558,0.161-0.841c0.043-0.455,0.071-0.912,0.071-1.37c0.004-6.98,0.004-13.962,0-20.943 c0-0.457-0.04-0.914-0.067-1.37c-0.021-0.375-0.128-0.732-0.257-1.081c-0.124-0.339-0.357-0.582-0.69-0.725 c-0.316-0.136-0.643-0.239-0.986-0.279c-0.313-0.036-0.624-0.087-0.938-0.108c-0.756-0.051-0.708-0.05-0.708-0.828 c0-0.228,0.015-0.456,0.026-0.684c0.006-0.101,0.124-0.21,0.234-0.21c0.429,0.001,0.858-0.012,1.285,0.015 c1.915,0.12,3.832,0.102,5.748,0.077c1.544-0.021,3.089-0.074,4.632-0.12c1.404-0.042,2.805,0.014,4.199,0.166 c1.28,0.14,2.544,0.384,3.761,0.828c0.701,0.256,1.37,0.576,1.989,0.995c1.473,0.997,2.378,2.362,2.688,4.119 c0.247,1.402,0.184,2.791-0.192,4.163c-0.451,1.652-1.427,2.909-2.898,3.782c-0.994,0.59-2.072,0.965-3.2,1.193 c-0.699,0.142-1.409,0.235-2.114,0.352C262.72,60.198,262.605,60.175,262.529,60.271z M255.871,52.858c0.007,0,0.013,0,0.02,0 c0,1.916,0,3.833,0.001,5.749c0,0.172,0.005,0.344,0.014,0.515c0.007,0.145,0.122,0.269,0.272,0.278 c0.399,0.025,0.799,0.043,1.198,0.062c1.004,0.047,2.002-0.022,2.995-0.151c0.626-0.082,1.233-0.233,1.828-0.45 c1.595-0.582,2.607-1.702,3.104-3.311c0.025-0.082,0.043-0.166,0.064-0.249c0.315-1.291,0.412-2.596,0.237-3.916 c-0.079-0.597-0.2-1.183-0.419-1.747c-0.468-1.204-1.288-2.078-2.46-2.62c-0.207-0.096-0.424-0.172-0.639-0.249 c-0.787-0.284-1.607-0.428-2.436-0.461c-0.999-0.04-2.001-0.004-3.002,0.013c-0.196,0.003-0.394,0.06-0.589,0.095 c-0.098,0.018-0.153,0.104-0.16,0.18c-0.021,0.256-0.028,0.514-0.028,0.771C255.87,49.196,255.871,51.027,255.871,52.858z"></path> <path fill-rule="evenodd" clip-rule="evenodd" fill="#272973" d="M328.391,52.716c-0.057-0.336-0.118-0.672-0.171-1.01 c-0.105-0.68-0.274-1.344-0.501-1.993c-0.152-0.434-0.348-0.846-0.59-1.236c-0.371-0.599-0.876-1.049-1.513-1.354 c-0.467-0.225-0.957-0.381-1.461-0.487c-0.503-0.106-1.012-0.178-1.525-0.229c-1.056-0.104-2.112-0.118-3.172-0.115 c-1.573,0.004-3.146,0-4.721,0.003c-0.199,0-0.401,0.006-0.598,0.036c-0.065,0.01-0.137,0.097-0.172,0.165 c-0.037,0.072-0.044,0.165-0.047,0.249c-0.007,0.229-0.005,0.458-0.005,0.687c-0.001,3.348-0.001,6.695,0,10.042 c0,0.286,0.014,0.571,0.023,0.857c0.004,0.095,0.13,0.228,0.218,0.235c0.114,0.01,0.229,0.024,0.342,0.025 c0.858,0.002,1.717,0.017,2.575-0.005c0.6-0.016,1.2-0.061,1.796-0.135c0.365-0.046,0.726-0.155,1.08-0.263 c0.592-0.18,0.961-0.602,1.171-1.167c0.199-0.538,0.325-1.096,0.396-1.666c0.061-0.481,0.122-0.964,0.186-1.445 c0.014-0.106,0.129-0.204,0.234-0.212c0.029-0.002,0.057-0.013,0.085-0.012c1.141,0.033,1.09-0.13,1.047,1.059 c-0.042,1.172-0.094,2.344-0.123,3.516c-0.032,1.259-0.029,2.517,0.03,3.775c0.058,1.2,0.082,2.401,0.117,3.603 c0.003,0.112-0.005,0.232-0.042,0.336c-0.024,0.067-0.11,0.157-0.171,0.16c-0.341,0.012-0.684,0.004-1.024-0.009 c-0.044-0.002-0.104-0.062-0.123-0.108c-0.032-0.077-0.046-0.164-0.055-0.249c-0.057-0.54-0.104-1.082-0.166-1.621 c-0.062-0.541-0.164-1.075-0.327-1.595c-0.068-0.218-0.143-0.436-0.237-0.643c-0.222-0.486-0.573-0.856-1.068-1.066 c-0.288-0.122-0.585-0.237-0.889-0.306c-0.503-0.111-1.013-0.188-1.53-0.188c-1.03,0.002-2.061-0.002-3.091-0.001 c-0.084,0-0.18-0.002-0.252,0.033c-0.067,0.033-0.147,0.108-0.159,0.177c-0.031,0.195-0.041,0.396-0.042,0.596 c-0.003,1.03-0.002,2.06-0.002,3.09c0,3.062,0,6.123,0.001,9.185c0,1.048-0.065,0.981,0.972,0.982 c2.604,0,5.207,0.004,7.811-0.002c1.003-0.003,1.998-0.114,2.979-0.319c0.562-0.117,1.106-0.292,1.621-0.548 c0.683-0.34,1.229-0.827,1.621-1.487c0.279-0.47,0.501-0.963,0.667-1.482c0.245-0.765,0.415-1.545,0.522-2.341 c0.046-0.34,0.096-0.68,0.16-1.016c0.014-0.071,0.09-0.171,0.152-0.184c0.366-0.075,0.738-0.079,1.104,0.006 c0.043,0.01,0.104,0.083,0.103,0.126c-0.008,0.372-0.02,0.743-0.044,1.113c-0.023,0.342-0.07,0.683-0.096,1.024 c-0.106,1.455-0.215,2.909-0.311,4.365c-0.042,0.628-0.053,1.257-0.083,1.886c-0.007,0.142-0.028,0.284-0.06,0.422 c-0.011,0.046-0.069,0.091-0.116,0.117c-0.048,0.026-0.108,0.039-0.164,0.041c-0.286,0.007-0.572,0.01-0.858,0.01 c-8.011,0.001-16.022,0.002-24.033-0.001c-1.349,0-1.136,0.135-1.159-1.215c-0.001-0.057,0.003-0.114,0.006-0.171 c0.008-0.155,0.115-0.284,0.254-0.294c0.199-0.017,0.399-0.034,0.599-0.034c0.404,0.001,0.795-0.089,1.188-0.163 c0.056-0.011,0.111-0.022,0.167-0.038c0.633-0.172,1.051-0.556,1.204-1.208c0.078-0.334,0.166-0.665,0.175-1.012 c0.015-0.544,0.058-1.087,0.058-1.63c0.004-6.666,0.004-13.332,0-19.999c-0.001-0.571-0.025-1.145-0.072-1.714 c-0.027-0.34-0.102-0.679-0.188-1.009c-0.142-0.541-0.497-0.886-1.037-1.043c-0.303-0.089-0.605-0.168-0.921-0.195 c-0.399-0.034-0.796-0.081-1.194-0.124c-0.104-0.011-0.217-0.127-0.219-0.229c-0.008-0.343-0.017-0.687-0.016-1.029 c0.001-0.375,0.074-0.446,0.451-0.456c0.229-0.005,0.458-0.003,0.687-0.003c2.003-0.001,4.006,0.004,6.009-0.001 c4.033-0.012,8.067-0.024,12.102-0.048c1.287-0.007,2.573-0.052,3.86-0.075c0.372-0.007,0.743-0.003,1.116,0.004 c0.264,0.005,0.348,0.084,0.375,0.362c0.033,0.342,0.059,0.684,0.078,1.026c0.054,0.942,0.104,1.885,0.153,2.827 c0.028,0.543,0.049,1.086,0.082,1.628c0.04,0.657,0.091,1.313,0.134,1.969c0.007,0.114,0.016,0.232-0.012,0.341 c-0.018,0.068-0.096,0.168-0.152,0.172c-0.313,0.021-0.627,0.024-0.94,0.021C328.571,52.8,328.492,52.751,328.391,52.716z"></path> <path fill-rule="evenodd" clip-rule="evenodd" fill="#272973" d="M212.21,75.926c-1.61,0.063-3.242,0.033-4.869,0.16 c-0.37,0.029-0.743,0.024-1.114,0.029c-0.148,0.002-0.264-0.117-0.267-0.275c-0.006-0.343-0.01-0.687-0.005-1.029 c0.004-0.259,0.097-0.358,0.363-0.37c0.402-0.019,0.798-0.067,1.187-0.167c0.193-0.05,0.387-0.107,0.57-0.184 c0.639-0.267,0.919-0.775,0.895-1.513c-0.014-0.368-0.085-0.736-0.205-1.093c-0.709-2.084-1.41-4.17-2.113-6.255 c-0.019-0.055-0.035-0.109-0.054-0.164c-0.061-0.179-0.183-0.285-0.373-0.302c-0.113-0.009-0.229-0.013-0.343-0.013 c-2.718-0.001-5.435-0.001-8.152,0.001c-0.143,0-0.286,0.009-0.427,0.028c-0.117,0.016-0.213,0.077-0.26,0.194 c-0.054,0.133-0.11,0.264-0.158,0.398c-0.609,1.726-1.221,3.449-1.822,5.177c-0.15,0.432-0.279,0.871-0.394,1.313 c-0.108,0.418-0.143,0.845-0.079,1.277c0.072,0.497,0.329,0.857,0.814,1.004c0.38,0.116,0.777,0.181,1.167,0.265 c0.111,0.023,0.231,0.017,0.335,0.058c0.069,0.026,0.155,0.106,0.165,0.173c0.064,0.425,0.064,0.854,0.005,1.28 c-0.013,0.089-0.147,0.194-0.251,0.191c-0.258-0.008-0.515-0.015-0.771-0.032c-2.029-0.142-4.058-0.144-6.086,0.003 c-0.256,0.019-0.514,0.016-0.77,0.018c-0.101,0.001-0.212-0.116-0.215-0.228c-0.006-0.371-0.012-0.742-0.007-1.113 c0.003-0.192,0.118-0.296,0.334-0.312c0.371-0.026,0.737-0.063,1.102-0.156c0.561-0.143,0.973-0.458,1.277-0.94 c0.275-0.438,0.476-0.912,0.656-1.395c0.379-1.018,0.75-2.038,1.127-3.058c1.944-5.254,3.89-10.508,5.833-15.763 c0.963-2.6,1.923-5.201,2.885-7.801c0.109-0.296,0.223-0.589,0.336-0.883c0.056-0.145,0.158-0.231,0.314-0.251 c0.028-0.004,0.057-0.009,0.085-0.009c0.572,0,1.145,0.001,1.716,0c0.192,0,0.331,0.086,0.401,0.262 c0.116,0.293,0.223,0.589,0.33,0.884c2.687,7.388,5.374,14.774,8.06,22.162c0.508,1.396,1.007,2.797,1.518,4.192 c0.147,0.402,0.313,0.799,0.485,1.191c0.42,0.958,1.177,1.439,2.203,1.528c0.2,0.018,0.399,0.032,0.599,0.051 c0.105,0.011,0.212,0.119,0.213,0.229c0.003,0.4,0.002,0.8,0.001,1.199c0,0.027-0.004,0.062-0.021,0.082 c-0.034,0.044-0.07,0.101-0.118,0.116c-0.08,0.025-0.169,0.033-0.254,0.031c-0.371-0.009-0.744-0.012-1.114-0.04 C215.374,75.962,213.801,75.969,212.21,75.926z M201.934,51.499c-0.068,0.033-0.138,0.042-0.158,0.079 c-0.068,0.123-0.128,0.254-0.176,0.386c-1.256,3.496-2.51,6.991-3.765,10.487c-0.029,0.081-0.062,0.16-0.088,0.241 c-0.062,0.189,0.04,0.321,0.262,0.329c0.229,0.008,0.457,0.011,0.686,0.011c0.772,0.001,1.544,0,2.316,0c1.229,0,2.458,0,3.688,0 c0.2,0,0.401,0.002,0.601-0.003c0.457-0.01,0.523-0.096,0.395-0.5c-0.009-0.027-0.022-0.053-0.031-0.08 c-1.18-3.492-2.357-6.983-3.538-10.475C202.069,51.813,201.998,51.658,201.934,51.499z"></path> <path fill-rule="evenodd" clip-rule="evenodd" fill="#272973" d="M161.039,51.399c0.021,1.199,0.045,2.744,0.074,4.288 c0.011,0.564,0.003,0.65-0.607,0.646c-0.171-0.001-0.343-0.005-0.515-0.013c-0.183-0.01-0.303-0.127-0.333-0.328 c-0.088-0.594-0.149-1.192-0.261-1.781c-0.273-1.444-0.737-2.82-1.505-4.084c-0.509-0.837-1.121-1.587-1.87-2.224 c-1.14-0.968-2.45-1.566-3.92-1.819c-1.572-0.271-3.133-0.22-4.68,0.169c-1.969,0.493-3.533,1.578-4.701,3.236 c-0.682,0.967-1.169,2.029-1.529,3.153c-0.333,1.037-0.563,2.097-0.706,3.177c-0.206,1.563-0.313,3.133-0.274,4.708 c0.045,1.832,0.197,3.655,0.637,5.443c0.358,1.454,0.88,2.838,1.689,4.106c0.687,1.075,1.538,1.988,2.602,2.698 c0.818,0.546,1.711,0.907,2.653,1.181c1.563,0.452,4.315,0.444,5.862,0.01c2.712-0.76,4.63-2.411,5.747-4.992 c0.181-0.418,0.313-0.858,0.468-1.289c0.039-0.107,0.071-0.218,0.122-0.318c0.022-0.045,0.082-0.094,0.13-0.101 c0.426-0.059,0.854-0.063,1.28,0.002c0.054,0.008,0.139,0.133,0.129,0.191c-0.059,0.366-0.124,0.732-0.216,1.092 c-0.891,3.48-3.068,5.806-6.396,7.086c-0.911,0.351-1.858,0.559-2.823,0.707c-1.509,0.232-3.026,0.233-4.538,0.11 c-2.102-0.17-4.119-0.69-5.975-1.72c-3.333-1.846-5.561-4.609-6.734-8.226c-0.372-1.146-0.598-2.321-0.725-3.522 c-0.127-1.199-0.165-2.397-0.097-3.599c0.118-2.099,0.494-4.146,1.323-6.09c1.459-3.423,3.82-6.012,7.179-7.648 c1.425-0.693,2.939-1.099,4.513-1.303c1.226-0.159,2.453-0.208,3.682-0.116c2.17,0.163,4.216,0.753,6.111,1.838 c0.698,0.399,1.351,0.86,1.954,1.393c0.15,0.132,0.305,0.258,0.458,0.385c0.054,0.044,0.182-0.009,0.205-0.087 c0.034-0.108,0.073-0.216,0.094-0.328c0.072-0.393,0.135-0.788,0.206-1.183c0.053-0.292,0.147-0.362,0.474-0.366 c0.086-0.001,0.172,0.002,0.257,0.002c0.717-0.001,0.704-0.018,0.68,0.707C161.114,48.078,161.085,49.565,161.039,51.399z"></path> </g> <g> <path fill-rule="evenodd" clip-rule="evenodd" fill="#272973" d="M277.87,15.793c0.255,0.154,0.524,0.088,0.772,0.139 c0.225,0.046,0.452,0.07,0.679,0.101c1.108,0.156,2.188,0.423,3.222,0.859c0.689,0.291,1.329,0.663,1.916,1.127 c1.188,0.938,1.969,2.149,2.311,3.617c0.375,1.614,0.36,3.234-0.11,4.833c-0.438,1.488-1.321,2.644-2.628,3.479 c-0.704,0.45-1.466,0.773-2.26,1.022c-1.122,0.351-2.275,0.563-3.443,0.677c-1.195,0.117-2.393,0.189-3.597,0.18 c-1.573-0.012-3.145-0.044-4.717-0.09c-1.486-0.044-2.974-0.027-4.461-0.032c-1.087-0.004-2.173,0.029-3.258,0.102 c-0.199,0.014-0.399,0-0.599-0.007c-0.112-0.003-0.232-0.108-0.235-0.208c-0.013-0.399-0.021-0.798-0.025-1.197 c-0.001-0.113,0.106-0.225,0.209-0.233c0.17-0.014,0.341-0.032,0.512-0.033c0.433-0.001,0.854-0.079,1.273-0.169 c0.14-0.031,0.273-0.082,0.41-0.123c0.478-0.146,0.776-0.474,0.927-0.936c0.123-0.381,0.221-0.771,0.237-1.174 c0.02-0.457,0.05-0.914,0.05-1.371c0.004-6.951,0.003-13.901,0-20.852c0-0.4-0.032-0.8-0.045-1.2 c-0.012-0.348-0.105-0.679-0.208-1.005c-0.128-0.403-0.388-0.697-0.8-0.833c-0.188-0.063-0.381-0.124-0.575-0.163 c-0.478-0.095-0.957-0.174-1.446-0.175c-0.503-0.001-0.57-0.072-0.563-0.614c0.003-0.286,0.012-0.571,0.021-0.856 c0.004-0.106,0.115-0.214,0.223-0.216c0.258-0.006,0.515-0.015,0.771-0.009c1.172,0.029,2.344,0.071,3.516,0.093 c0.686,0.013,1.372-0.008,2.059,0.001c1.659,0.023,3.315-0.077,4.975-0.1c0.801-0.011,1.602-0.012,2.402-0.017 c1.262-0.007,2.512,0.121,3.752,0.348c0.817,0.15,1.614,0.374,2.384,0.69c0.451,0.186,0.881,0.409,1.291,0.674 c1.197,0.774,2.023,1.836,2.474,3.188c0.19,0.571,0.302,1.157,0.367,1.758c0.081,0.745,0.069,1.483-0.017,2.224 c-0.279,2.391-1.452,4.177-3.595,5.299c-0.919,0.482-1.906,0.768-2.928,0.937c-0.339,0.056-0.68,0.098-1.018,0.155 C278.022,15.698,277.955,15.751,277.87,15.793z M270.532,23.271c0,0.571,0,1.143,0,1.714c0,1.372-0.001,2.743,0.001,4.114 c0,0.228,0.008,0.456,0.017,0.685c0.004,0.101,0.116,0.224,0.211,0.239c0.084,0.013,0.169,0.034,0.254,0.034 c1.456-0.004,2.913,0.047,4.367-0.089c0.685-0.065,1.357-0.186,2.019-0.37c0.412-0.115,0.811-0.273,1.192-0.471 c0.786-0.408,1.375-1.007,1.783-1.792c0.293-0.563,0.478-1.163,0.589-1.783c0.25-1.391,0.24-2.786-0.002-4.177 c-0.088-0.506-0.234-0.999-0.435-1.476c-0.475-1.134-1.268-1.953-2.385-2.459c-0.182-0.083-0.369-0.153-0.557-0.221 c-0.729-0.265-1.484-0.408-2.253-0.493c-1.424-0.156-2.853-0.124-4.28-0.121c-0.057,0-0.114,0.004-0.171,0.008 c-0.188,0.013-0.332,0.143-0.338,0.316c-0.009,0.257-0.012,0.514-0.012,0.771C270.532,19.557,270.532,21.414,270.532,23.271z M270.532,8.491c0,1.832-0.001,3.663,0.001,5.494c0.001,0.228,0.007,0.458,0.036,0.684c0.008,0.063,0.101,0.151,0.168,0.166 c0.165,0.036,0.338,0.047,0.508,0.048c0.916,0.004,1.832,0.006,2.747,0c0.372-0.002,0.745-0.015,1.115-0.046 c0.803-0.067,1.584-0.236,2.326-0.555c1.018-0.438,1.754-1.161,2.2-2.179c0.242-0.554,0.398-1.13,0.493-1.726 c0.205-1.283,0.194-2.566-0.009-3.847c-0.108-0.681-0.293-1.34-0.609-1.958c-0.365-0.71-0.898-1.247-1.616-1.603 c-0.438-0.217-0.896-0.376-1.371-0.486c-0.896-0.209-1.807-0.296-2.723-0.314c-0.916-0.019-1.832-0.007-2.748-0.007 c-0.084,0-0.17,0.013-0.255,0.022c-0.105,0.011-0.227,0.119-0.231,0.216c-0.014,0.256-0.03,0.513-0.031,0.77 C270.531,4.943,270.532,6.717,270.532,8.491z"></path> <path fill-rule="evenodd" clip-rule="evenodd" fill="#272973" d="M185.391,0.443c0.338,0.449,0.649,0.859,0.956,1.272 c5.146,6.942,10.292,13.884,15.438,20.826c0.137,0.184,0.277,0.365,0.426,0.538c0.025,0.03,0.11,0.037,0.151,0.018 c0.04-0.019,0.083-0.081,0.085-0.126c0.013-0.257,0.018-0.515,0.018-0.771c0-5.065-0.002-10.131,0.003-15.196 c0.001-0.803-0.067-1.601-0.152-2.397c-0.038-0.366-0.14-0.73-0.247-1.083c-0.15-0.495-0.483-0.84-0.973-1.016 c-0.241-0.086-0.491-0.152-0.74-0.209c-0.589-0.138-1.189-0.164-1.791-0.18c-0.153-0.004-0.286-0.121-0.287-0.26 c-0.004-0.399-0.001-0.799,0.005-1.199c0.001-0.107,0.118-0.218,0.227-0.216c0.4,0.006,0.801,0.001,1.199,0.031 c2.286,0.167,4.572,0.198,6.859-0.001c0.397-0.035,0.8-0.022,1.199-0.027c0.107-0.001,0.217,0.109,0.218,0.219 c0.005,0.399,0.008,0.799,0.004,1.199c-0.002,0.143-0.119,0.238-0.284,0.259c-0.482,0.061-0.968,0.105-1.445,0.191 c-0.278,0.05-0.552,0.15-0.813,0.26c-0.358,0.149-0.609,0.417-0.749,0.785c-0.164,0.431-0.271,0.876-0.296,1.335 c-0.047,0.799-0.104,1.6-0.106,2.4c-0.01,5.266,0.007,10.531-0.01,15.797c-0.009,2.804-0.066,5.608-0.107,8.412 c-0.003,0.197-0.043,0.394-0.079,0.588c-0.008,0.042-0.071,0.091-0.118,0.104c-0.079,0.023-0.167,0.031-0.251,0.027 c-0.601-0.028-1.191-0.134-1.807-0.215c-0.158-0.199-0.323-0.394-0.476-0.599c-2.221-2.983-4.44-5.969-6.66-8.954 c-4.047-5.441-8.094-10.883-12.141-16.325c-0.256-0.345-0.515-0.687-0.775-1.028c-0.07-0.093-0.156-0.115-0.214-0.084 c-0.095,0.051-0.086,0.14-0.089,0.219c-0.007,0.2-0.006,0.401-0.006,0.601c0,6.696,0,13.393-0.001,20.09 c0,0.746,0.035,1.488,0.161,2.223c0.049,0.281,0.114,0.561,0.197,0.834c0.149,0.498,0.473,0.835,0.971,1.009 c0.518,0.181,1.056,0.252,1.596,0.314c0.142,0.016,0.286,0.022,0.429,0.021c0.843-0.002,0.807,0.023,0.798,0.803 c-0.002,0.143-0.008,0.286-0.016,0.43c-0.021,0.41-0.101,0.479-0.538,0.44c-2.628-0.23-5.259-0.198-7.891-0.071 c-0.343,0.017-0.684,0.059-1.026,0.08c-0.288,0.018-0.409-0.099-0.412-0.408c-0.003-0.342,0.011-0.685,0.023-1.027 c0.004-0.107,0.116-0.215,0.224-0.222c0.541-0.038,1.087-0.048,1.618-0.18c0.249-0.062,0.501-0.12,0.741-0.208 c0.452-0.167,0.769-0.477,0.932-0.942c0.152-0.436,0.259-0.881,0.286-1.338c0.053-0.856,0.111-1.714,0.112-2.572 c0.01-6.21,0.008-12.42,0-18.63c-0.001-0.657-0.064-1.314-0.102-1.97c-0.02-0.347-0.117-0.677-0.233-1 c-0.154-0.427-0.442-0.727-0.882-0.874c-0.519-0.175-1.052-0.269-1.598-0.297c-0.342-0.018-0.686-0.023-1.028-0.037 c-0.105-0.005-0.219-0.114-0.221-0.223c-0.006-0.399-0.009-0.799-0.006-1.198c0.002-0.148,0.124-0.253,0.287-0.25 c0.344,0.005,0.688,0.006,1.029,0.034c2.315,0.188,4.63,0.189,6.945,0.004C184.413,0.437,184.869,0.406,185.391,0.443z"></path> <path fill-rule="evenodd" clip-rule="evenodd" fill="#272973" d="M348.698,22.775c0.392-0.089,0.787-0.074,1.182-0.011 c0.042,0.007,0.102,0.077,0.106,0.123c0.015,0.141,0.019,0.285,0.008,0.427c-0.053,0.684-0.114,1.368-0.167,2.052 c-0.085,1.113-0.172,2.225-0.244,3.338c-0.047,0.713-0.061,1.429-0.103,2.143c-0.063,1.083-0.001,0.973-1.019,0.973 c-8.098,0.003-16.196,0.001-24.294,0.001c-1.064,0-0.97,0.068-0.977-0.971c-0.001-0.057,0-0.114,0.001-0.171 c0.005-0.457,0.05-0.547,0.54-0.545c0.489,0.001,0.968-0.081,1.447-0.169c0.835-0.155,1.312-0.654,1.455-1.476 c0.088-0.507,0.182-1.015,0.18-1.533c-0.002-0.2,0.001-0.4,0.001-0.601c0-6.838-0.001-13.678,0.003-20.517 c0-0.631-0.023-1.26-0.151-1.878c-0.057-0.278-0.144-0.553-0.249-0.817c-0.108-0.275-0.318-0.482-0.592-0.593 c-0.264-0.106-0.54-0.184-0.816-0.253c-0.502-0.125-1.019-0.143-1.532-0.181c-0.161-0.012-0.27-0.116-0.271-0.273 c-0.002-0.399,0.005-0.799,0.013-1.199c0.002-0.103,0.12-0.209,0.229-0.213c0.257-0.009,0.515-0.019,0.771-0.019 c1.373-0.002,2.747,0.001,4.12-0.001c2.375-0.004,4.75-0.006,7.125-0.017c2.117-0.009,4.234-0.022,6.352-0.045 c1.717-0.019,3.433-0.055,5.148-0.082c0.143-0.002,0.286-0.002,0.429,0.002c0.155,0.005,0.26,0.099,0.271,0.271 c0.048,0.742,0.085,1.485,0.131,2.227c0.087,1.399,0.178,2.798,0.264,4.196c0.028,0.457,0.052,0.914,0.071,1.371 c0.007,0.147-0.115,0.268-0.273,0.271C347.571,8.609,347.285,8.606,347,8.6c-0.111-0.002-0.229-0.098-0.25-0.2 c-0.047-0.224-0.101-0.447-0.129-0.673c-0.075-0.598-0.217-1.181-0.379-1.759c-0.14-0.498-0.336-0.973-0.581-1.427 c-0.438-0.811-1.081-1.39-1.941-1.735c-0.534-0.215-1.086-0.366-1.649-0.459c-0.819-0.134-1.645-0.219-2.477-0.218 c-2.175,0.003-4.35,0-6.524,0.002c-0.171,0-0.345,0.006-0.512,0.037c-0.067,0.013-0.152,0.089-0.177,0.156 c-0.037,0.104-0.037,0.225-0.038,0.338c-0.005,0.343-0.003,0.687-0.003,1.03c0,3.176-0.001,6.352,0.001,9.528 c0,0.286,0.014,0.571,0.025,0.857c0.004,0.103,0.119,0.21,0.224,0.22c0.085,0.008,0.17,0.022,0.256,0.021 c1.145-0.001,2.289-0.01,3.434-0.007c0.52,0.001,1.031-0.079,1.528-0.198c1.245-0.297,1.52-0.703,1.832-1.69 c0.235-0.739,0.311-1.511,0.397-2.277c0.016-0.142,0.03-0.284,0.042-0.427c0.009-0.098,0.077-0.171,0.151-0.188 c0.366-0.081,0.736-0.086,1.101,0.015c0.044,0.012,0.094,0.079,0.104,0.127c0.021,0.111,0.029,0.227,0.027,0.34 c-0.036,1.43-0.082,2.86-0.109,4.29c-0.015,0.801-0.014,1.602,0.002,2.402c0.032,1.573,0.079,3.146,0.118,4.719 c0.002,0.085,0.004,0.178-0.027,0.253c-0.029,0.069-0.101,0.167-0.159,0.171c-0.313,0.022-0.627,0.024-0.94,0.023 c-0.145,0-0.258-0.125-0.273-0.276c-0.06-0.598-0.114-1.195-0.178-1.792c-0.057-0.542-0.171-1.073-0.338-1.591 c-0.062-0.19-0.131-0.379-0.213-0.561c-0.22-0.489-0.582-0.843-1.066-1.07c-0.392-0.183-0.802-0.308-1.229-0.362 c-0.596-0.074-1.191-0.147-1.796-0.135c-0.771,0.015-1.545,0.001-2.317,0.006c-0.142,0-0.284,0.02-0.423,0.048 c-0.047,0.01-0.092,0.067-0.119,0.115s-0.04,0.108-0.042,0.165c-0.007,0.229-0.011,0.458-0.011,0.686 c0,4.006-0.001,8.012,0,12.018c0,1.049-0.069,0.999,0.957,0.999c2.317,0,4.635-0.004,6.953,0.001 c0.975,0.002,1.945-0.055,2.91-0.177c0.711-0.089,1.406-0.253,2.077-0.513c1.004-0.389,1.753-1.053,2.241-2.018 c0.273-0.54,0.483-1.1,0.635-1.682c0.174-0.664,0.315-1.335,0.388-2.02c0.023-0.227,0.063-0.453,0.104-0.678 C348.62,22.953,348.66,22.877,348.698,22.775z"></path> <path fill-rule="evenodd" clip-rule="evenodd" fill="#272973" d="M168.312,0.31c0.127,0.385,0.139,0.757,0.155,1.127 c0.021,0.486,0.028,0.973,0.059,1.458c0.091,1.456,0.191,2.912,0.282,4.368c0.023,0.371,0.024,0.742,0.03,1.113 c0.002,0.104-0.113,0.213-0.221,0.221c-0.114,0.009-0.229,0.02-0.342,0.021c-0.89,0.007-0.769,0.015-0.903-0.771 c-0.11-0.649-0.229-1.295-0.418-1.926c-0.155-0.522-0.364-1.022-0.636-1.497c-0.413-0.721-0.999-1.243-1.76-1.573 c-0.607-0.264-1.245-0.427-1.896-0.525c-0.793-0.119-1.589-0.2-2.393-0.198c-2.146,0.005-4.293,0-6.439,0.004 c-0.199,0-0.398,0.023-0.595,0.051c-0.044,0.006-0.092,0.068-0.117,0.115c-0.026,0.048-0.037,0.109-0.039,0.166 c-0.006,0.229-0.009,0.458-0.009,0.687c0,3.377,0,6.754,0,10.131c0,0.229,0.002,0.458,0.008,0.687 c0.008,0.28,0.159,0.339,0.388,0.348c0.171,0.007,0.343,0.007,0.515,0.007c0.858,0,1.717-0.005,2.576,0.001 c0.604,0.005,1.201-0.051,1.79-0.172c0.306-0.063,0.608-0.16,0.9-0.272c0.418-0.162,0.709-0.466,0.899-0.875 c0.23-0.498,0.364-1.024,0.446-1.562c0.086-0.565,0.14-1.135,0.208-1.703c0.014-0.113,0.111-0.216,0.215-0.229 c0.343-0.043,0.686-0.052,1.023,0.025c0.048,0.011,0.11,0.07,0.118,0.115c0.024,0.139,0.036,0.284,0.032,0.425 c-0.036,1.401-0.084,2.803-0.113,4.205c-0.017,0.8-0.022,1.602-0.005,2.402c0.034,1.573,0.09,3.146,0.132,4.719 c0.003,0.112-0.019,0.228-0.049,0.336c-0.014,0.046-0.077,0.111-0.119,0.112c-0.342,0.01-0.684,0.008-1.026,0.006 c-0.098,0-0.164-0.077-0.182-0.154c-0.032-0.138-0.037-0.282-0.046-0.424c-0.056-0.858-0.164-1.709-0.351-2.548 c-0.087-0.392-0.212-0.772-0.386-1.134c-0.219-0.457-0.567-0.786-1.02-1.005c-0.337-0.163-0.693-0.28-1.06-0.337 c-0.48-0.075-0.965-0.144-1.449-0.155c-0.973-0.024-1.946-0.008-2.919-0.006c-0.085,0-0.171,0.012-0.256,0.021 c-0.133,0.013-0.252,0.145-0.259,0.292c-0.007,0.143-0.011,0.286-0.011,0.429c0,4.179-0.001,8.357,0,12.535 c0,0.171,0.016,0.342,0.028,0.513c0.007,0.101,0.123,0.21,0.229,0.217c0.171,0.011,0.342,0.023,0.513,0.023 c0.801,0.002,1.603,0.003,2.404,0.001c1.86-0.004,3.72-0.001,5.58-0.019c1.003-0.009,2-0.108,2.982-0.322 c0.447-0.098,0.885-0.231,1.308-0.409c0.904-0.381,1.588-1.001,2.046-1.873c0.294-0.561,0.519-1.147,0.676-1.758 c0.164-0.637,0.309-1.278,0.377-1.935c0.032-0.313,0.099-0.621,0.159-0.929c0.009-0.044,0.07-0.101,0.116-0.11 c0.367-0.071,0.737-0.065,1.105-0.001c0.044,0.007,0.108,0.078,0.109,0.12c0.004,0.285,0.012,0.572-0.016,0.855 c-0.139,1.452-0.262,2.906-0.332,4.363c-0.052,1.085-0.119,2.171-0.181,3.256c-0.005,0.085-0.005,0.178-0.04,0.252 c-0.033,0.069-0.1,0.137-0.169,0.17c-0.073,0.035-0.166,0.036-0.251,0.038c-0.229,0.005-0.458,0.004-0.687,0.004 c-7.984,0-15.969,0-23.954,0c-0.2,0-0.4,0.002-0.601-0.001c-0.521-0.008-0.562-0.05-0.568-0.606 c-0.003-0.257,0.002-0.515,0.01-0.772c0.006-0.189,0.124-0.298,0.338-0.301c0.545-0.005,1.082-0.072,1.619-0.169 c0.877-0.158,1.355-0.674,1.499-1.534c0.109-0.65,0.177-1.303,0.174-1.964c-0.007-1.717-0.002-3.435-0.002-5.151 c0-5.123-0.001-10.246,0.002-15.368c0-0.689-0.035-1.373-0.161-2.051c-0.2-1.082-0.589-1.376-1.535-1.588 c-0.474-0.107-0.957-0.173-1.446-0.182c-0.085-0.001-0.17-0.016-0.256-0.026c-0.106-0.012-0.215-0.117-0.217-0.226 c-0.006-0.399-0.01-0.799-0.007-1.199c0.001-0.152,0.117-0.253,0.281-0.259c0.257-0.008,0.515-0.013,0.772-0.013 c1.574-0.001,3.148,0.001,4.722,0c2.175-0.004,4.35-0.006,6.525-0.017c2.117-0.009,4.235-0.021,6.353-0.045 c1.745-0.02,3.489-0.059,5.234-0.085C167.978,0.262,168.145,0.293,168.312,0.31z"></path> <path fill-rule="evenodd" clip-rule="evenodd" fill="#272973" d="M116.921,30.983c-0.354,0.161-0.695,0.12-1.032,0.064 c-0.065-0.01-0.135-0.101-0.167-0.171c-0.034-0.073-0.037-0.167-0.036-0.251c0.053-2.517,0.134-5.033,0.055-7.55 c-0.02-0.629-0.028-1.258-0.04-1.888c-0.004-0.259,0.086-0.348,0.365-0.352c0.286-0.003,0.572,0.001,0.858,0.009 c0.053,0.001,0.105,0.034,0.185,0.061c0.022,0.059,0.066,0.132,0.078,0.21c0.102,0.708,0.157,1.421,0.311,2.122 c0.265,1.21,0.673,2.364,1.325,3.423c0.979,1.588,2.319,2.738,4.092,3.363c0.516,0.182,1.046,0.303,1.584,0.371 c1.317,0.165,2.627,0.155,3.905-0.27c1.088-0.362,1.993-0.984,2.667-1.925c0.424-0.591,0.699-1.249,0.828-1.96 c0.132-0.734,0.169-1.474,0.058-2.221c-0.164-1.092-0.647-2.004-1.468-2.738c-0.385-0.344-0.813-0.631-1.261-0.889 c-1.095-0.63-2.255-1.114-3.448-1.52c-1.164-0.396-2.319-0.816-3.452-1.294c-0.896-0.379-1.774-0.795-2.61-1.296 c-0.766-0.458-1.461-1.003-2.079-1.647c-1.064-1.113-1.663-2.439-1.886-3.958c-0.198-1.35-0.137-2.68,0.174-4.003 c0.451-1.917,1.491-3.449,3.052-4.631c1.257-0.951,2.686-1.505,4.226-1.793c1.532-0.287,3.076-0.314,4.616-0.143 c2.075,0.23,4.015,0.882,5.778,2.024c0.19,0.123,0.39,0.23,0.589,0.339c0.057,0.031,0.119,0.006,0.142-0.058 c0.057-0.16,0.121-0.32,0.152-0.485c0.057-0.309,0.104-0.618,0.252-0.931c0.349-0.116,0.716-0.085,1.082-0.025 c0.042,0.007,0.085,0.075,0.108,0.123c0.022,0.05,0.029,0.112,0.027,0.167c-0.117,2.774-0.108,5.549,0.001,8.323 c0.002,0.055-0.006,0.119-0.032,0.166c-0.025,0.046-0.078,0.105-0.122,0.108c-0.313,0.019-0.626,0.029-0.938,0.031 c-0.144,0.001-0.254-0.113-0.282-0.272c-0.084-0.479-0.152-0.96-0.252-1.436c-0.182-0.871-0.468-1.709-0.877-2.502 c-0.383-0.743-0.869-1.413-1.474-1.991c-0.736-0.703-1.592-1.215-2.563-1.518c-1.448-0.45-2.919-0.533-4.406-0.207 c-0.765,0.167-1.464,0.485-2.093,0.951c-1.327,0.981-2.007,2.315-2.121,3.946c-0.04,0.572,0,1.142,0.133,1.705 c0.24,1.011,0.732,1.858,1.577,2.478c0.322,0.236,0.658,0.457,1.004,0.657c0.869,0.501,1.785,0.905,2.717,1.273 c0.984,0.389,1.972,0.768,2.952,1.164c1.248,0.503,2.465,1.073,3.639,1.731c0.575,0.322,1.126,0.679,1.654,1.074 c1.341,1.001,2.182,2.334,2.555,3.951c0.353,1.529,0.325,3.064-0.068,4.59c-0.419,1.63-1.282,2.983-2.54,4.09 c-1.25,1.1-2.706,1.806-4.31,2.212c-1.738,0.439-3.509,0.532-5.283,0.361c-2.328-0.225-4.438-1.06-6.322-2.452 c-0.276-0.204-0.546-0.415-0.82-0.621c-0.091-0.068-0.242-0.013-0.273,0.104c-0.088,0.331-0.169,0.664-0.257,0.995 C117.075,30.444,116.996,30.716,116.921,30.983z"></path> <path fill-rule="evenodd" clip-rule="evenodd" fill="#272973" d="M233.437,1.042c0.28-0.145,0.482-0.113,0.681-0.114 c0.597-0.002,0.641,0.041,0.6,0.631c-0.112,1.658-0.101,3.318-0.082,4.978c0.012,0.944,0.058,1.887,0.088,2.831 c0.003,0.086,0.002,0.171,0.001,0.257c-0.001,0.114-0.096,0.239-0.195,0.245c-0.256,0.014-0.513,0.028-0.769,0.028 c-0.11,0-0.221-0.037-0.312-0.054c-0.145-0.226-0.16-0.458-0.187-0.684c-0.092-0.8-0.293-1.575-0.56-2.332 c-0.394-1.12-0.977-2.128-1.813-2.983c-0.95-0.971-2.101-1.566-3.415-1.868c-0.872-0.2-1.757-0.246-2.646-0.18 c-1.226,0.091-2.353,0.467-3.324,1.243c-1.002,0.8-1.615,1.83-1.858,3.093c-0.153,0.802-0.145,1.592,0.029,2.385 c0.217,0.983,0.689,1.811,1.48,2.447c0.447,0.36,0.937,0.656,1.443,0.923c0.888,0.465,1.807,0.862,2.739,1.229 c1.145,0.45,2.29,0.897,3.424,1.373c1.188,0.499,2.345,1.064,3.437,1.752c0.387,0.244,0.764,0.506,1.128,0.782 c1.285,0.973,2.084,2.273,2.443,3.829c0.394,1.705,0.34,3.411-0.187,5.086c-0.477,1.516-1.366,2.757-2.579,3.776 c-1.229,1.033-2.645,1.694-4.19,2.081c-1.711,0.428-3.455,0.517-5.201,0.352c-2.359-0.223-4.494-1.071-6.397-2.489 c-0.206-0.154-0.407-0.315-0.614-0.468c-0.09-0.066-0.189-0.12-0.274-0.172c-0.155,0.096-0.198,0.229-0.233,0.371 c-0.116,0.472-0.232,0.944-0.356,1.414c-0.05,0.191-0.165,0.268-0.378,0.279c-0.086,0.004-0.172,0.006-0.258,0.007 c-0.582,0.002-0.64-0.046-0.639-0.631c0.002-0.744,0.01-1.488,0.032-2.231c0.063-2.061,0.042-4.121-0.021-6.18 c-0.01-0.314,0-0.629,0.008-0.943c0.005-0.155,0.115-0.257,0.278-0.26c0.314-0.005,0.629-0.005,0.943-0.003 c0.107,0,0.212,0.099,0.229,0.215c0.047,0.34,0.09,0.68,0.134,1.021c0.176,1.372,0.526,2.692,1.153,3.933 c0.245,0.487,0.531,0.948,0.862,1.381c1.1,1.437,2.517,2.402,4.279,2.832c1.382,0.336,2.776,0.371,4.17,0.076 c1.06-0.224,1.99-0.701,2.767-1.467c0.54-0.534,0.936-1.159,1.17-1.876c0.364-1.11,0.439-2.245,0.166-3.386 c-0.227-0.946-0.726-1.736-1.471-2.365c-0.483-0.408-1.017-0.742-1.575-1.036c-1.065-0.561-2.179-1.008-3.32-1.39 c-1.194-0.399-2.369-0.848-3.523-1.351c-0.708-0.309-1.403-0.645-2.073-1.03c-0.899-0.518-1.709-1.146-2.411-1.914 c-0.913-1-1.467-2.179-1.7-3.503c-0.244-1.396-0.214-2.791,0.099-4.178c0.49-2.175,1.694-3.849,3.538-5.079 c1.086-0.726,2.285-1.188,3.56-1.432c2.309-0.441,4.611-0.385,6.892,0.205c1.312,0.339,2.537,0.883,3.678,1.616 c0.191,0.123,0.39,0.235,0.586,0.351c0.057,0.033,0.19-0.026,0.21-0.092c0.041-0.136,0.084-0.273,0.116-0.411 C233.307,1.653,233.37,1.346,233.437,1.042z"></path> <path fill-rule="evenodd" clip-rule="evenodd" fill="#272973" d="M317.448,21.731c0.096-0.04,0.171-0.086,0.253-0.101 c0.111-0.02,0.228-0.021,0.341-0.021c1.003-0.006,0.927-0.022,0.859,0.96c-0.097,1.427-0.226,2.851-0.341,4.276 c-0.119,1.482-0.236,2.965-0.357,4.447c-0.012,0.142-0.041,0.282-0.065,0.423c-0.016,0.089-0.155,0.218-0.236,0.221 c-0.114,0.005-0.229,0.011-0.343,0.008c-1.83-0.041-3.66-0.083-5.491-0.123c-1.173-0.026-2.345-0.063-3.518-0.075 c-1.688-0.016-3.376-0.014-5.063-0.018c-0.315-0.001-0.63,0.005-0.944,0.009c-1.945,0.024-3.891,0.051-5.836,0.072 c-0.944,0.01-1.888,0.008-2.832,0.008c-0.114,0-0.229-0.013-0.34-0.039c-0.048-0.012-0.114-0.065-0.122-0.109 c-0.087-0.453-0.077-0.91-0.01-1.363c0.011-0.072,0.089-0.143,0.188-0.149c0.171-0.01,0.342-0.034,0.513-0.035 c0.433-0.001,0.854-0.08,1.273-0.169c0.194-0.042,0.386-0.108,0.57-0.183c0.305-0.123,0.524-0.343,0.663-0.641 c0.194-0.42,0.291-0.868,0.328-1.325c0.034-0.428,0.058-0.857,0.058-1.286c0.003-6.925,0.004-13.85,0-20.774 c-0.001-0.686-0.037-1.368-0.182-2.046c-0.164-0.766-0.618-1.208-1.364-1.357c-0.448-0.089-0.904-0.136-1.357-0.196 c-0.17-0.023-0.342-0.03-0.512-0.046c-0.098-0.009-0.17-0.081-0.182-0.157c-0.065-0.454-0.066-0.911,0.003-1.365 c0.007-0.043,0.072-0.096,0.12-0.112c0.08-0.026,0.169-0.038,0.253-0.035c0.314,0.007,0.63,0.014,0.943,0.037 c1.999,0.145,4,0.2,6.003,0.161c1.173-0.023,2.346-0.061,3.518-0.103c0.601-0.021,1.199-0.069,1.8-0.098 c0.17-0.008,0.345-0.007,0.513,0.018c0.066,0.01,0.166,0.092,0.174,0.152c0.063,0.454,0.069,0.911-0.005,1.365 c-0.008,0.046-0.068,0.111-0.111,0.118c-0.168,0.026-0.339,0.044-0.509,0.045c-0.603,0.002-1.197,0.059-1.792,0.159 c-0.898,0.151-1.434,0.631-1.602,1.538c-0.084,0.453-0.114,0.908-0.147,1.363c-0.012,0.171-0.004,0.343-0.004,0.515 c0,7.726,0,15.452,0.001,23.179c0,0.257,0.005,0.515,0.015,0.772c0.008,0.184,0.138,0.295,0.34,0.305 c0.058,0.002,0.114,0.005,0.172,0.005c2.403-0.004,4.808-0.003,7.211-0.015c0.891-0.004,1.767-0.151,2.629-0.364 c0.528-0.13,1.034-0.33,1.51-0.601c0.584-0.332,1.062-0.77,1.422-1.339c0.293-0.462,0.514-0.957,0.696-1.469 c0.328-0.92,0.533-1.869,0.674-2.833C317.303,22.803,317.374,22.266,317.448,21.731z"></path> <path fill-rule="evenodd" clip-rule="evenodd" fill="#272973" d="M251.813,16.131c0,3.319,0.002,6.638-0.001,9.957 c-0.001,0.716,0.038,1.429,0.138,2.138c0.045,0.315,0.128,0.617,0.252,0.906c0.13,0.3,0.345,0.521,0.653,0.646 c0.51,0.208,1.048,0.283,1.59,0.332c0.228,0.021,0.457,0.016,0.686,0.026c0.415,0.018,0.471,0.076,0.477,0.521 c0.004,0.287-0.001,0.573-0.01,0.858c-0.005,0.184-0.142,0.3-0.342,0.298c-0.172-0.001-0.344-0.004-0.515-0.016 c-2.915-0.195-5.831-0.194-8.749-0.116c-0.887,0.024-1.771,0.081-2.658,0.117c-0.198,0.008-0.399,0.008-0.597-0.016 c-0.064-0.008-0.163-0.098-0.169-0.159c-0.028-0.283-0.04-0.569-0.04-0.854c0.001-0.6,0.019-0.62,0.622-0.635 c0.459-0.012,0.914-0.048,1.363-0.146c0.056-0.012,0.111-0.022,0.168-0.032c0.84-0.142,1.305-0.647,1.443-1.478 c0.08-0.48,0.164-0.958,0.165-1.448c0-0.4,0.013-0.801,0.014-1.201c0.001-6.466,0.001-12.933,0-19.399 c-0.001-0.429-0.013-0.858-0.015-1.287c-0.002-0.489-0.095-0.967-0.177-1.446c-0.011-0.057-0.025-0.112-0.039-0.167 c-0.167-0.642-0.572-1.042-1.22-1.188c-0.56-0.125-1.125-0.201-1.7-0.216c-0.61-0.017-0.62-0.035-0.626-0.633 c-0.003-0.229-0.002-0.458,0.005-0.687c0.008-0.302,0.098-0.387,0.429-0.383c0.458,0.006,0.918,0.002,1.373,0.042 c1.483,0.128,2.972,0.172,4.458,0.176c1.629,0.004,3.261-0.038,4.888-0.158c0.541-0.04,1.085-0.039,1.629-0.051 c0.153-0.003,0.268,0.112,0.269,0.27c0.003,0.399-0.002,0.799-0.008,1.199c-0.001,0.101-0.115,0.201-0.231,0.208 c-0.199,0.012-0.4,0.01-0.599,0.033c-0.426,0.049-0.853,0.096-1.274,0.173c-0.222,0.041-0.44,0.125-0.646,0.219 c-0.268,0.123-0.465,0.331-0.59,0.6c-0.133,0.287-0.226,0.586-0.27,0.9c-0.092,0.652-0.149,1.306-0.146,1.965 c0.006,1.316,0.001,2.632,0.001,3.949C251.813,12.011,251.813,14.071,251.813,16.131z"></path> </g> <g> <path fill-rule="evenodd" clip-rule="evenodd" fill="#EC1F25" d="M13.136,65.569c0.135,0.357,0.408,0.616,0.652,0.893 c1.074,1.213,2.349,2.175,3.761,2.956c0.978,0.541,1.994,1,3.083,1.276c0.047,0.012,0.106-0.011,0.157-0.026 c0.009-0.003,0.016-0.066,0.004-0.076c-0.175-0.144-0.351-0.287-0.533-0.423c-1.082-0.813-2.052-1.737-2.844-2.839 c-0.83-1.153-1.418-2.412-1.667-3.82c-0.1-0.567-0.14-1.139-0.095-1.71c0.172-2.173,1.871-3.636,3.544-3.882 c1.661-0.245,3.074,0.231,4.127,1.552c2.078,2.604,0.56,6.376-2.603,6.938c-0.728,0.129-1.421,0.059-2.116-0.144 c-0.159-0.046-0.308-0.127-0.518-0.121c0.056,0.076,0.086,0.154,0.143,0.188c1.291,0.78,2.644,0.894,4.021,0.287 c0.794-0.351,0.646-0.342,1.276,0.14c1.757,1.345,3.739,2.194,5.886,2.684c1.317,0.3,2.651,0.405,4.002,0.403 c1.47-0.001,2.909-0.19,4.324-0.569c1.39-0.371,2.704-0.926,3.914-1.712c1.19-0.773,2.211-1.722,2.987-2.917 c0.927-1.428,1.388-2.997,1.416-4.699c0.018-1.063-0.072-2.112-0.304-3.151c-0.457-2.046-1.476-3.766-2.986-5.205 c-0.77-0.733-1.622-1.358-2.53-1.908c-1.351-0.816-2.779-1.471-4.247-2.043c-2.026-0.789-4.101-1.435-6.181-2.065 c-2.079-0.631-4.162-1.25-6.234-1.904c-2.319-0.732-4.603-1.562-6.821-2.564c-2.274-1.027-4.446-2.233-6.45-3.728 C6.209,34.325,3.37,30.367,1.751,25.53c-0.683-2.04-1.131-4.131-1.405-6.266c-0.325-2.533-0.39-5.073-0.321-7.622 c0.032-1.202,0.122-2.4,0.229-3.596C0.395,6.482,0.574,4.92,0.84,3.369C0.985,2.523,1.115,1.675,1.255,0.83 c0.014-0.083,0.051-0.162,0.086-0.239C1.35,0.574,1.394,0.567,1.421,0.566c0.024,0,0.062,0.005,0.071,0.022 c0.056,0.097,0.117,0.194,0.157,0.297c0.868,2.227,2.344,3.976,4.235,5.398C7.263,7.32,8.77,8.136,10.343,8.834 c2.017,0.895,4.104,1.594,6.216,2.22c2.55,0.755,5.129,1.402,7.704,2.065c2.852,0.735,5.699,1.488,8.497,2.413 c2.174,0.72,4.307,1.542,6.354,2.575c1.82,0.917,3.54,1.99,5.097,3.313c2.22,1.886,3.92,4.152,4.992,6.873 c0.042,0.106,0.085,0.212,0.113,0.323c0.013,0.049,0.003,0.121-0.027,0.158c-0.019,0.024-0.104,0.022-0.14,0 c-0.098-0.058-0.188-0.129-0.277-0.202c-2.847-2.315-6.03-4.034-9.453-5.325c-2.468-0.931-5.004-1.614-7.6-2.08 c-1.437-0.258-2.883-0.419-4.337-0.544c-1.43-0.123-2.858-0.126-4.287-0.082c-0.913,0.028-1.823,0.141-2.733,0.23 c-0.939,0.091-1.872,0.235-2.8,0.41c-3.451,0.648-6.752,1.733-9.863,3.374c-0.15,0.079-0.313,0.135-0.469,0.201 c0.075-0.014,0.086,0,0.033,0.039c-0.005-0.022-0.01-0.044-0.015-0.066c0.198,0.046,0.387,0.049,0.587-0.024 c0.59-0.216,1.185-0.423,1.783-0.616c1.991-0.641,4.023-1.098,6.097-1.381c1.02-0.14,2.042-0.251,3.07-0.314 c0.34-0.021,0.682-0.049,0.999,0.024c0.179,0.244,0.191,0.504,0.238,0.755c0.217,1.154,0.517,2.286,0.919,3.389 c1.083,2.967,2.845,5.463,5.236,7.521c1.196,1.029,2.491,1.919,3.839,2.734c1.568,0.947,3.199,1.777,4.828,2.611 c1.604,0.82,3.212,1.633,4.766,2.546c1.358,0.799,2.664,1.672,3.871,2.688c1.704,1.436,3.108,3.114,4.139,5.095 c0.731,1.405,1.242,2.89,1.574,4.433c0.368,1.71,0.571,3.444,0.546,5.194c-0.063,4.491-1.642,8.377-4.769,11.606 c-2.543,2.628-5.651,4.237-9.229,4.947c-1.209,0.24-2.439,0.307-3.669,0.339c-1.95,0.05-3.887-0.102-5.802-0.477 c-2.633-0.516-5.123-1.409-7.403-2.845c-1.563-0.984-2.936-2.182-4.056-3.658c-0.73-0.963-1.316-2.006-1.757-3.132 c-0.079-0.2-0.069-0.389,0.008-0.582L13.136,65.569z"></path> <path fill-rule="evenodd" clip-rule="evenodd" fill="#EC1F25" d="M90.123,65.592c0.09,0.193,0.08,0.386,0,0.581 c-0.28,0.69-0.598,1.361-0.987,1.998c-0.999,1.634-2.302,2.984-3.84,4.115c-1.275,0.937-2.659,1.68-4.125,2.27 c-2.056,0.827-4.195,1.334-6.395,1.568c-1.767,0.188-3.536,0.194-5.312,0.064c-2.717-0.199-5.2-1.048-7.471-2.535 c-1.423-0.931-2.662-2.073-3.762-3.365c-1.57-1.846-2.787-3.91-3.747-6.128c-1.073-2.479-1.794-5.06-2.265-7.719 c-0.567-3.204-0.668-6.43-0.444-9.662c0.247-3.559,1.007-7.014,2.365-10.325c0.851-2.075,1.937-4.015,3.305-5.797 c0.988-1.289,2.183-2.338,3.559-3.19c1.345-0.833,2.783-1.463,4.276-1.971c1.735-0.591,3.513-1.022,5.312-1.364 c2.333-0.443,4.683-0.774,7.039-1.066c1.73-0.214,3.46-0.44,5.185-0.697c2.008-0.298,4.009-0.642,5.973-1.171 c1.216-0.328,2.409-0.722,3.558-1.246c0.81-0.37,1.563-0.835,2.303-1.324c0.03-0.021,0.099,0.008,0.145,0.025 c0.018,0.007,0.035,0.048,0.033,0.072c-0.005,0.084-0.006,0.173-0.032,0.253c-0.241,0.745-0.62,1.411-1.135,2.001 c-0.473,0.542-1.013,1.009-1.605,1.416c-0.591,0.406-1.211,0.76-1.854,1.076c-1.209,0.595-2.465,1.071-3.738,1.505 c-1.868,0.636-3.769,1.166-5.666,1.707c-2.309,0.659-4.622,1.307-6.901,2.065c-2.119,0.705-4.203,1.498-6.211,2.476 c-1.805,0.879-3.522,1.904-5.101,3.15c-1.447,1.142-2.723,2.448-3.787,3.954c-1.509,2.137-2.459,4.508-2.949,7.072 c-0.258,1.354-0.385,2.719-0.381,4.096c0.004,1.229,0.03,2.457,0.17,3.684c0.27,2.354,0.902,4.599,1.935,6.728 c1.281,2.64,3.046,4.9,5.37,6.707c1.645,1.279,3.46,2.219,5.484,2.75c1.341,0.352,2.705,0.496,4.081,0.395 c1.611-0.12,3.151-0.544,4.603-1.27c0.899-0.449,1.742-0.984,2.529-1.61c0.201-0.16,0.398-0.326,0.61-0.473 c0.061-0.042,0.171-0.05,0.244-0.027c0.135,0.042,0.259,0.118,0.388,0.181c0.363,0.175,0.741,0.29,1.14,0.359 c1.093,0.192,2.176-0.022,3.104-0.645c0.031-0.021,0.032-0.086,0.059-0.166c-0.429,0.114-0.825,0.263-1.247,0.322 c-1.298,0.181-2.451-0.154-3.429-1.001c-1.25-1.083-1.723-2.493-1.412-4.098c0.319-1.646,1.327-2.776,2.938-3.281 c2.474-0.774,5.076,0.722,5.55,3.396c0.114,0.647,0.072,1.313-0.036,1.966c-0.195,1.173-0.625,2.256-1.249,3.265 c-0.715,1.155-1.618,2.145-2.666,3.004c-0.375,0.307-0.763,0.599-1.143,0.901c-0.015,0.012-0.014,0.061-0.002,0.082 s0.05,0.048,0.07,0.043c0.167-0.034,0.338-0.063,0.499-0.117c2.141-0.729,4.063-1.828,5.715-3.383 c0.438-0.413,0.838-0.861,1.209-1.334c0.07-0.089,0.115-0.196,0.172-0.295L90.123,65.592z"></path> <path fill-rule="evenodd" clip-rule="evenodd" fill="#EC1F25" d="M86.09,26.643c0.413-0.177,0.685-0.237,0.958-0.304 c1.424-0.349,2.785-0.863,4.058-1.594c2.801-1.607,4.848-3.882,6.053-6.891c0.353-0.88,0.583-1.793,0.674-2.739 c0.008-0.083-0.006-0.169-0.016-0.253c-0.003-0.025-0.02-0.064-0.039-0.07c-0.049-0.015-0.115-0.036-0.15-0.015 c-0.097,0.059-0.187,0.133-0.271,0.209c-1.243,1.125-2.663,1.967-4.19,2.644c-1.654,0.732-3.377,1.249-5.135,1.655 c-1.979,0.457-3.979,0.798-5.993,1.068c-1.955,0.262-3.908,0.533-5.861,0.802c-1.331,0.184-2.664,0.353-3.991,0.561 c-3.025,0.474-6.02,1.083-8.933,2.05c-1.44,0.478-2.846,1.04-4.203,1.721c-1.617,0.813-3.132,1.78-4.52,2.943 c-0.131,0.11-0.264,0.219-0.404,0.317c-0.03,0.021-0.096,0.001-0.142-0.013c-0.014-0.004-0.027-0.051-0.022-0.075 c0.016-0.083,0.031-0.169,0.062-0.248c0.781-1.992,1.892-3.778,3.34-5.356c1.484-1.617,3.213-2.921,5.1-4.025 c1.409-0.824,2.878-1.526,4.388-2.148c2.091-0.862,4.236-1.565,6.403-2.202c2.332-0.685,4.686-1.288,7.039-1.892 c2.879-0.74,5.759-1.479,8.584-2.41c1.903-0.627,3.771-1.342,5.555-2.262c1.249-0.644,2.435-1.384,3.522-2.28 c1.644-1.354,2.905-2.987,3.685-4.979c0.041-0.104,0.05-0.229,0.163-0.291c0.02-0.011,0.052-0.007,0.075-0.002 c0.026,0.006,0.067,0.02,0.071,0.037c0.083,0.419,0.174,0.837,0.241,1.259c0.228,1.441,0.385,2.891,0.492,4.345 c0.042,0.57,0.042,1.143,0.05,1.715c0.032,2.097-0.179,4.167-0.679,6.207c-0.266,1.085-0.615,2.142-1.04,3.175 c-0.24,0.584-0.552,1.13-0.898,1.657c-1.596,2.428-3.603,4.43-6.127,5.895c-1.654,0.961-3.432,1.553-5.33,1.787 C88.061,26.715,87.103,26.723,86.09,26.643z"></path> </g> <path fill-rule="evenodd" clip-rule="evenodd" fill="#272973" d="M51.646,18.427c0.037-0.177,0.065-0.278,0.078-0.381 c0.546-4.179,2.104-7.938,4.69-11.266c0.969-1.249,2.08-2.359,3.352-3.304c1.11-0.824,2.307-1.485,3.627-1.91 c0.932-0.3,1.885-0.455,2.867-0.465c1.299-0.013,2.89,0.813,3.381,2.551c0.533,1.883-0.526,3.747-2.296,4.31 c-1.24,0.395-2.373,0.144-3.375-0.683c-0.154-0.127-0.282-0.284-0.431-0.418c-0.087-0.079-0.205-0.114-0.319-0.081 c-0.247,0.071-0.494,0.143-0.733,0.236c-1.156,0.446-2.214,1.065-3.198,1.815c-1.493,1.136-2.751,2.497-3.837,4.021 c-1.662,2.332-2.836,4.891-3.558,7.66c-0.072,0.275-0.145,0.55-0.218,0.832c-0.059-0.037-0.124-0.054-0.138-0.091 c-0.062-0.159-0.117-0.322-0.158-0.487c-0.844-3.35-2.315-6.389-4.507-9.067c-0.91-1.111-1.933-2.107-3.087-2.966 c-1.063-0.791-2.206-1.432-3.464-1.856c-0.108-0.036-0.217-0.075-0.328-0.096c-0.115-0.021-0.228-0.002-0.318,0.083 c-0.145,0.138-0.283,0.285-0.435,0.414c-1.925,1.646-4.871,0.837-5.646-1.593c-0.713-2.234,0.887-4.461,3.179-4.569 c1.218-0.058,2.388,0.195,3.524,0.62c1.327,0.496,2.518,1.223,3.617,2.108c1.46,1.176,2.688,2.564,3.743,4.109 c1.881,2.759,3.088,5.792,3.685,9.072c0.066,0.366,0.114,0.735,0.178,1.101C51.536,18.204,51.583,18.277,51.646,18.427z"></path> </g> </svg> 